<?xml version="1.0" encoding="UTF-8"?>
<svg id="Layer_1" data-name="Layer 1" xmlns="http://www.w3.org/2000/svg" viewBox="0 0 1143.03 488.51">
  <defs>
    <style>
      .cls-1 {
        fill: #fff;
      }

      .cls-2 {
        fill: #2740c1;
      }
    </style>
  </defs>
  <g>
    <path class="cls-2" d="M346.26,108.98h148.58l-23.57,41.88h-140.84c-4.08,0-6.65-4.41-4.62-7.96l20.44-33.92Z"/>
    <path class="cls-2" d="M318.42,163.47c-8.94,0-14.38-8.81-9.96-16.58l22.8-37.91h-116.26l-94.88,163.47h54.37l59.02-98.5c11.37-15.31,32.24-13.68,32.24-13.68l-96.48,166.67h62.5l64.96-112.18h0s.02,0,.02,0l2.84-4.9s11.53,17.48,3.64,34.83l-79.85,136.73h59.68l126.93-217.96h-91.56Z"/>
  </g>
  <path class="cls-1" d="M569.89,237.43h-15.07v-40.18l-24.36,40.18h-10.88l-24.36-40.18v40.18h-15.07v-58.59h20.34l24.52,41.35,24.53-41.35h20.34v58.59Z"/>
  <path class="cls-1" d="M635.6,224.96h-35.07l-6.28,12.47h-16.57l30.22-58.59h20.34l30.3,58.59h-16.66l-6.28-12.47ZM629.99,213.74l-11.89-23.77-11.97,23.77h23.86Z"/>
  <path class="cls-1" d="M721.73,191.48h-28.46v45.95h-15.07v-45.95h-28.46v-12.64h71.98v12.64Z"/>
  <path class="cls-1" d="M764.09,178c23.35,0,35.07,8.87,36.58,25.78h-15.32c-1.42-9.46-8.71-13.14-21.26-13.14-15.32,0-21.76,5.44-21.76,17.41s6.53,17.58,21.76,17.58c12.47,0,19.84-3.77,21.26-13.31h15.32c-1.51,16.99-13.22,25.95-36.58,25.95-25.78,0-36.83-10.71-36.83-30.22s11.05-30.05,36.83-30.05Z"/>
  <path class="cls-1" d="M888.14,178.84v58.59h-15.07v-22.93h-47.71v22.93h-15.07v-58.59h15.07v22.93h47.71v-22.93h15.07Z"/>
  <path class="cls-1" d="M466.44,265.6h-28.46v45.95h-15.07v-45.95h-28.46v-12.64h71.98v12.64Z"/>
  <path class="cls-1" d="M531.31,294.14l10.8,17.41h-17.74l-9.46-15.65h-24.27v15.65h-15.07v-58.59h46.04c13.31,0,22.43,8.45,22.43,21.51,0,9.54-4.85,16.57-12.72,19.67ZM490.63,283.26h26.79c4.52,0,11.55,0,11.55-8.79s-7.03-8.87-11.55-8.87h-26.79v17.66Z"/>
  <path class="cls-1" d="M604.78,299.08h-35.07l-6.28,12.47h-16.57l30.22-58.59h20.34l30.3,58.59h-16.66l-6.28-12.47ZM599.18,287.86l-11.89-23.77-11.97,23.77h23.86Z"/>
  <path class="cls-1" d="M667.41,252.12c23.35,0,35.07,8.87,36.58,25.78h-15.32c-1.42-9.46-8.71-13.14-21.26-13.14-15.32,0-21.76,5.44-21.76,17.41s6.53,17.58,21.76,17.58c12.47,0,19.84-3.77,21.26-13.31h15.32c-1.51,16.99-13.22,25.95-36.58,25.95-25.78,0-36.83-10.71-36.83-30.22s11.05-30.05,36.83-30.05Z"/>
  <path class="cls-1" d="M757.81,278.99l35.49,32.56h-20.84l-25.78-24.36-18,13.14v11.22h-15.07v-58.59h15.07v30.38l41.77-30.38h22.85l-35.49,26.03Z"/>
  <path class="cls-1" d="M815.66,264.93v11.89h46.87v10.88h-46.87v11.89h46.87v11.97h-61.94v-58.59h61.94v11.97h-46.87Z"/>
  <path class="cls-1" d="M927.9,294.14l10.8,17.41h-17.74l-9.46-15.65h-24.27v15.65h-15.07v-58.59h46.04c13.31,0,22.43,8.45,22.43,21.51,0,9.54-4.85,16.57-12.72,19.67ZM887.22,283.26h26.79c4.52,0,11.55,0,11.55-8.79s-7.03-8.87-11.55-8.87h-26.79v17.66Z"/>
  <path class="cls-1" d="M963.14,291.38c0,6.19,5.02,9.04,24.11,9.04,15.82,0,20.59-1.76,20.59-6.36,0-4.85-3.35-5.69-22.35-6.61-25.53-1.17-35.66-5.19-35.66-18.33s13.14-16.99,35.07-16.99,35.49,5.52,35.49,20.01h-15.07c0-6.45-6.45-8.04-22.1-8.04-14.82,0-18.33,1.42-18.33,5.78s3.52,5.36,20.59,6.36c23.1,1.26,37.42,2.51,37.42,17.33,0,15.65-14.82,18.83-36.49,18.83-24.02,0-38.34-4.1-38.34-21.01h15.07Z"/>
  <g>
    <path class="cls-1" d="M904.12,166.13h-5.64v-3.29h15.28v3.29h-5.62v15.28h-4.02v-15.28Z"/>
    <path class="cls-1" d="M931.95,174.45c0-3.17.05-6.72.13-8.82h-.13c-.87,3.79-2.73,9.98-4.51,15.79h-3.42c-1.35-5.08-3.27-12.13-4.09-15.84h-.13c.16,2.18.24,6,.24,9.19v6.65h-3.66v-18.57h5.98c1.45,4.85,3.07,10.94,3.63,13.71h.03c.45-2.44,2.5-8.95,4.04-13.71h5.76v18.57h-3.87v-6.97Z"/>
  </g>
</svg>