<?xml version="1.0" encoding="UTF-8"?>
<svg id="Layer_1" data-name="Layer 1" xmlns="http://www.w3.org/2000/svg" viewBox="0 0 1143.03 488.51">
  <defs>
    <style>
      .cls-1 {
        fill: #fff;
      }
    </style>
  </defs>
  <path class="cls-1" d="M379.41,231.9h-21.81v-58.17l-35.26,58.17h-15.75l-35.26-58.17v58.17h-21.81v-84.83h29.45l35.51,59.86,35.51-59.86h29.45v84.83Z"/>
  <path class="cls-1" d="M474.54,213.85h-50.78l-9.09,18.06h-23.99l43.75-84.83h29.45l43.87,84.83h-24.11l-9.09-18.06ZM466.42,197.61l-17.21-34.42-17.33,34.42h34.54Z"/>
  <path class="cls-1" d="M599.24,165.37h-41.2v66.53h-21.81v-66.53h-41.2v-18.3h104.22v18.3Z"/>
  <path class="cls-1" d="M660.57,145.86c33.81,0,50.78,12.85,52.96,37.32h-22.18c-2.06-13.69-12.6-19.03-30.78-19.03-22.18,0-31.51,7.88-31.51,25.21s9.45,25.45,31.51,25.45c18.06,0,28.72-5.45,30.78-19.27h22.18c-2.18,24.6-19.15,37.57-52.96,37.57-37.33,0-53.32-15.51-53.32-43.75s16-43.51,53.32-43.51Z"/>
  <path class="cls-1" d="M840.16,147.08v84.83h-21.81v-33.2h-69.07v33.2h-21.81v-84.83h21.81v33.2h69.07v-33.2h21.81Z"/>
  <path class="cls-1" d="M229.63,272.68h-41.2v66.53h-21.81v-66.53h-41.2v-18.3h104.22v18.3Z"/>
  <path class="cls-1" d="M323.55,314l15.63,25.21h-25.69l-13.69-22.66h-35.14v22.66h-21.81v-84.83h66.65c19.27,0,32.48,12.24,32.48,31.14,0,13.81-7.03,23.99-18.42,28.48ZM264.65,298.25h38.78c6.54,0,16.72,0,16.72-12.72s-10.18-12.85-16.72-12.85h-38.78v25.57Z"/>
  <path class="cls-1" d="M429.93,321.15h-50.78l-9.09,18.06h-23.99l43.75-84.83h29.45l43.87,84.83h-24.11l-9.09-18.06ZM421.81,304.91l-17.21-34.42-17.33,34.42h34.54Z"/>
  <path class="cls-1" d="M520.6,253.17c33.81,0,50.78,12.85,52.96,37.32h-22.18c-2.06-13.69-12.6-19.03-30.78-19.03-22.18,0-31.51,7.88-31.51,25.21s9.45,25.45,31.51,25.45c18.06,0,28.72-5.45,30.78-19.27h22.18c-2.18,24.6-19.15,37.57-52.96,37.57-37.33,0-53.32-15.51-53.32-43.75s16-43.51,53.32-43.51Z"/>
  <path class="cls-1" d="M651.48,292.07l51.38,47.14h-30.18l-37.32-35.26-26.05,19.03v16.24h-21.81v-84.83h21.81v43.99l60.47-43.99h33.08l-51.38,37.69Z"/>
  <path class="cls-1" d="M735.22,271.71v17.21h67.86v15.75h-67.86v17.21h67.86v17.33h-89.68v-84.83h89.68v17.33h-67.86Z"/>
  <path class="cls-1" d="M897.73,314l15.63,25.21h-25.69l-13.69-22.66h-35.14v22.66h-21.81v-84.83h66.65c19.27,0,32.48,12.24,32.48,31.14,0,13.81-7.03,23.99-18.42,28.48ZM838.84,298.25h38.78c6.54,0,16.72,0,16.72-12.72s-10.18-12.85-16.72-12.85h-38.78v25.57Z"/>
  <path class="cls-1" d="M948.75,310c0,8.97,7.27,13.09,34.9,13.09,22.9,0,29.81-2.54,29.81-9.21,0-7.03-4.85-8.24-32.36-9.57-36.96-1.7-51.62-7.51-51.62-26.54s19.03-24.6,50.78-24.6,51.38,8,51.38,28.96h-21.81c0-9.33-9.33-11.63-31.99-11.63-21.45,0-26.54,2.06-26.54,8.36s5.09,7.76,29.81,9.21c33.45,1.82,54.17,3.64,54.17,25.09,0,22.66-21.45,27.27-52.84,27.27-34.78,0-55.5-5.94-55.5-30.42h21.81Z"/>
  <g>
    <path class="cls-1" d="M863.3,128.68h-8.17v-4.76h22.12v4.76h-8.14v22.12h-5.82v-22.12Z"/>
    <path class="cls-1" d="M903.58,140.71c0-4.59.07-9.73.19-12.77h-.19c-1.26,5.48-3.95,14.44-6.53,22.85h-4.95c-1.96-7.35-4.74-17.56-5.92-22.92h-.18c.23,3.15.34,8.69.34,13.3v9.63h-5.3v-26.88h8.65c2.1,7.02,4.45,15.84,5.25,19.84h.04c.66-3.53,3.61-12.95,5.85-19.84h8.34v26.88h-5.61v-10.08Z"/>
  </g>
</svg>